<svg xmlns="http://www.w3.org/2000/svg" width="1440" viewBox="0 0 1440 360" height="360" version="1.0"><defs><clipPath id="a"><path d="M 0 12.933594 L 230 12.933594 L 230 324.183594 L 0 324.183594 Z M 0 12.933594"/></clipPath></defs><path fill="#FFF" d="M-144 -36H1584V396H-144z"/><path fill="#FFF" d="M-144 -36H1584V396H-144z"/><path fill="#62C273" d="M-144 -36H1584V396H-144z"/><path fill="#1ED5C3" d="M 1352.628906 178.082031 C 1351.996094 178.082031 1350.964844 177.84375 1350.808594 178.082031 C 1347.324219 185.375 1342.96875 181.730469 1337.582031 180.144531 C 1322.609375 175.863281 1316.355469 162.785156 1307.085938 152.71875 C 1300.355469 145.34375 1293.542969 138.132812 1287.285156 130.441406 C 1277.148438 118 1267.800781 105 1262.8125 89.460938 C 1262.335938 87.957031 1263.285156 86.054688 1263.285156 84.308594 C 1263.285156 82.566406 1263.601562 79.632812 1262.652344 79.15625 C 1254.96875 74.796875 1258.214844 67.742188 1257.820312 61.558594 C 1257.664062 58.785156 1255.761719 56.167969 1255.285156 53.316406 C 1254.414062 48.003906 1254.019531 42.535156 1253.386719 37.144531 C 1253.066406 34.371094 1252.277344 31.59375 1252.195312 28.742188 C 1252.117188 23.273438 1252.832031 17.804688 1252.59375 12.414062 C 1252.039062 -2.808594 1255.128906 -18.027344 1261.621094 -31.820312 C 1265.980469 -41.25 1268.910156 -51.238281 1272.871094 -60.832031 C 1279.128906 -75.8125 1287.679688 -89.605469 1299.71875 -100.226562 C 1306.292969 -106.015625 1313.976562 -111.007812 1321.105469 -116.476562 C 1327.046875 -121.074219 1335.285156 -120.203125 1342.648438 -120.835938 C 1343.441406 -120.917969 1344.15625 -121.15625 1346.292969 -121.550781 L 1340.351562 -127.019531 C 1343.519531 -128.765625 1346.453125 -130.585938 1349.460938 -131.933594 C 1364.667969 -138.910156 1379.796875 -143.746094 1397.144531 -143.746094 C 1425.5 -143.667969 1449.816406 -131.933594 1474.84375 -121.550781 C 1492.347656 -114.257812 1509.21875 -105.777344 1524.269531 -94.042969 C 1543.59375 -79.0625 1557.140625 -59.324219 1568.148438 -38 C 1574.566406 -25.558594 1579.871094 -12.476562 1583.910156 1 C 1588.585938 16.613281 1586.289062 32.707031 1583.117188 48.558594 C 1578.839844 69.722656 1576.386719 91.441406 1570.207031 112.054688 C 1554.527344 164.210938 1521.257812 200.199219 1467.714844 214.785156 C 1458.132812 217.402344 1447.519531 217.71875 1437.539062 217.003906 C 1410.449219 215.179688 1384.074219 209.472656 1359.757812 196.710938 C 1357.066406 195.285156 1355.242188 192.351562 1353.105469 190.054688 C 1357.621094 185.851562 1351.679688 182.046875 1352.628906 177.925781 L 1361.183594 179.589844 L 1362.453125 178.003906 C 1361.183594 176.65625 1360.074219 174.675781 1358.492188 173.960938 C 1354.6875 172.375 1353.34375 174.992188 1352.628906 178.082031 Z M 1323.957031 -50.210938 C 1323.480469 -53.855469 1323.085938 -56.550781 1322.691406 -59.5625 C 1316.355469 -58.453125 1317.859375 -53.300781 1315.878906 -48.542969 Z M 1323.957031 -50.210938"/><g clip-path="url(#a)"><path fill="#1ED5C3" d="M -180.015625 218.042969 C -180.015625 217.144531 -179.867188 216.398438 -179.867188 215.503906 C -179.71875 213.257812 -179.71875 213.410156 -177.179688 212.363281 C -176.582031 212.214844 -176.429688 211.167969 -175.984375 210.71875 C -173.59375 208.027344 -171.203125 205.335938 -168.066406 201.75 L -170.304688 194.273438 L -187.335938 189.789062 L -180.914062 185.601562 C -183.003906 182.910156 -185.394531 180.96875 -181.511719 177.828125 C -179.867188 176.484375 -179.269531 172.445312 -180.914062 168.558594 L -184.796875 178.578125 L -196.152344 172.296875 L -192.414062 170.652344 L -190.625 172.894531 L -188.234375 170.054688 L -185.992188 171.847656 C -187.039062 167.960938 -188.980469 167.960938 -192.265625 170.804688 C -192.863281 170.054688 -193.460938 169.308594 -193.761719 168.558594 C -194.804688 167.066406 -195.554688 165.570312 -196.152344 163.925781 C -196.449219 162.132812 -196.597656 160.488281 -196.449219 158.695312 L -195.554688 158.695312 L -193.3125 161.984375 L -191.371094 158.09375 L -196.898438 155.554688 L -194.507812 154.65625 C -197.644531 152.414062 -198.242188 148.078125 -196 145.089844 C -195.554688 144.492188 -195.105469 144.042969 -194.65625 143.742188 C -193.460938 142.847656 -192.566406 141.5 -191.519531 140.457031 C -190.472656 139.410156 -189.578125 137.765625 -187.335938 139.257812 C -186.886719 139.558594 -184.796875 138.8125 -184.347656 137.914062 C -182.40625 134.476562 -179.121094 133.726562 -175.832031 133.429688 C -173.59375 133.578125 -171.652344 132.082031 -171.203125 129.839844 C -170.304688 126.550781 -169.261719 123.261719 -168.363281 119.972656 C -164.628906 105.621094 -156.113281 93.960938 -146.105469 83.199219 C -139.53125 76.023438 -132.210938 69.59375 -125.191406 62.867188 C -129.523438 57.632812 -127.582031 52.253906 -120.261719 50.90625 C -120.410156 50.160156 -120.410156 49.261719 -120.410156 49.414062 C -117.871094 48.8125 -115.777344 48.367188 -113.835938 47.769531 C -107.710938 45.972656 -101.738281 43.433594 -95.460938 42.386719 C -85.003906 40.742188 -74.847656 36.855469 -66.03125 31.023438 C -57.367188 25.34375 -47.507812 23.25 -37.949219 20.109375 C -27.191406 16.523438 -15.835938 15.925781 -4.78125 15.027344 C 7.316406 13.832031 19.269531 13.085938 31.070312 12.933594 C 40.035156 12.785156 49.148438 13.980469 58.257812 14.578125 C 63.636719 14.878906 69.015625 15.476562 74.394531 15.925781 C 74.992188 15.925781 75.738281 15.328125 76.335938 15.328125 C 78.277344 15.179688 80.367188 15.179688 82.3125 15.328125 C 84.851562 15.625 87.242188 16.523438 89.78125 17.121094 C 90.378906 17.269531 91.273438 17.421875 91.425781 17.121094 C 93.8125 13.683594 95.605469 16.222656 97.546875 17.71875 C 98.445312 18.464844 100.089844 18.019531 101.132812 18.617188 C 103.078125 19.363281 104.867188 20.558594 106.363281 22.203125 C 108.15625 24.597656 110.394531 26.390625 113.085938 27.585938 C 124.4375 32.96875 135.34375 39.097656 146.546875 45.078125 C 149.386719 46.570312 151.628906 48.367188 155.363281 47.46875 C 158.796875 47.019531 162.382812 47.167969 165.671875 48.066406 C 168.210938 48.515625 169.554688 47.769531 170.300781 45.375 C 171.496094 46.722656 172.992188 47.917969 174.632812 48.8125 C 175.378906 49.113281 176.875 47.917969 177.921875 47.320312 C 178.667969 48.214844 179.414062 49.859375 180.011719 49.859375 C 185.390625 49.859375 188.378906 53.449219 190.46875 56.4375 C 190.171875 58.082031 190.171875 59.878906 190.320312 61.519531 C 190.917969 64.210938 191.8125 66.753906 192.710938 69.296875 C 192.710938 69.59375 192.859375 69.742188 192.859375 70.042969 C 190.917969 73.929688 194.351562 77.21875 194.054688 80.804688 C 193.605469 82.300781 193.007812 83.648438 192.261719 84.992188 C 192.558594 85.890625 193.753906 87.382812 193.753906 88.878906 C 193.605469 92.46875 195.699219 92.617188 197.191406 92.617188 C 200.628906 99.492188 203.167969 106.519531 207.5 112.351562 C 210.335938 116.238281 211.683594 120.570312 213.921875 124.460938 C 217.808594 131.335938 221.242188 138.511719 224.230469 145.835938 C 226.320312 150.621094 227.070312 156.003906 228.265625 161.085938 C 228.5625 162.132812 228.710938 163.328125 229.011719 164.671875 C 227.21875 165.570312 226.472656 166.617188 227.515625 169.308594 C 228.5625 172.445312 228.710938 175.886719 228.113281 179.175781 C 227.21875 185.003906 225.425781 190.6875 224.082031 196.515625 C 223.933594 197.5625 223.78125 198.609375 223.78125 199.65625 C 223.933594 200.550781 223.78125 201.597656 223.484375 202.496094 C 220.347656 208.476562 216.910156 214.304688 213.773438 220.136719 C 213.027344 221.632812 212.28125 222.976562 211.382812 224.472656 C 207.5 229.40625 203.613281 234.339844 199.730469 239.273438 C 197.042969 242.710938 194.054688 246.148438 191.066406 249.289062 C 187.628906 252.578125 184.195312 255.566406 180.460938 258.40625 C 172.394531 264.6875 164.773438 271.5625 156.109375 277.09375 C 146.847656 282.773438 137.285156 287.859375 127.277344 292.042969 C 113.234375 298.023438 98.894531 303.554688 84.402344 308.1875 C 78.277344 310.132812 72.453125 312.972656 65.730469 313.421875 C 59.605469 313.871094 53.777344 316.710938 47.800781 318.355469 C 46.605469 318.652344 45.261719 320.148438 44.367188 317.90625 C 44.214844 317.609375 43.320312 317.609375 42.722656 317.757812 C 36.449219 319.101562 30.023438 320.296875 23.75 321.792969 C 22.40625 322.09375 21.210938 323.4375 20.015625 324.335938 C 19.269531 321.792969 17.476562 321.046875 14.636719 321.046875 C 4.777344 321.34375 -5.082031 321.792969 -14.941406 321.046875 C -25.546875 320 -36.15625 318.355469 -46.613281 316.261719 C -51.839844 315.363281 -56.769531 313.421875 -61.851562 311.925781 C -62.894531 311.476562 -63.941406 311.328125 -64.988281 311.476562 C -69.019531 312.824219 -71.410156 310.132812 -74.398438 308.039062 C -77.984375 305.5 -82.167969 303.703125 -86.050781 301.3125 C -92.324219 297.425781 -98.898438 293.6875 -104.875 289.351562 C -108.757812 286.511719 -112.792969 287.707031 -116.527344 287.859375 C -121.15625 288.007812 -125.488281 288.15625 -129.523438 285.316406 C -130.121094 284.867188 -130.269531 283.671875 -130.71875 282.925781 L -132.511719 279.785156 L -128.625 273.058594 L -129.375 272.460938 L -133.855469 274.554688 C -133.707031 271.863281 -132.960938 269.46875 -133.707031 267.976562 C -135.199219 264.984375 -134.75 260.351562 -139.679688 259.753906 C -140.128906 259.753906 -140.277344 257.957031 -140.578125 257.0625 C -143.714844 258.40625 -146.703125 259.902344 -149.839844 260.949219 C -151.332031 261.097656 -152.976562 261.097656 -154.472656 260.648438 C -155.515625 260.648438 -156.5625 260.5 -157.609375 260.203125 C -160.445312 259.15625 -163.285156 257.957031 -166.125 256.761719 C -166.421875 256.613281 -166.570312 256.164062 -166.570312 255.867188 C -164.929688 251.082031 -168.960938 248.691406 -169.859375 245.402344 C -169.707031 243.160156 -168.960938 240.617188 -169.707031 238.824219 C -170.902344 236.28125 -173.59375 235.085938 -176.28125 235.832031 L -172.847656 233.742188 L -174.789062 230.300781 C -174.339844 229.554688 -173.890625 228.957031 -173.59375 228.210938 C -172.398438 224.921875 -173.890625 219.6875 -176.730469 217.746094 C -177.625 217.445312 -178.972656 217.894531 -180.015625 218.042969 Z M -1.796875 311.179688 C -1.644531 310.433594 -1.496094 309.683594 -1.496094 308.789062 C -1.644531 308.039062 -2.394531 307.441406 -2.691406 306.695312 C -3.4375 304.453125 -8.964844 301.011719 -10.160156 302.507812 C -13 305.796875 -15.835938 304.902344 -19.125 304.152344 C -19.722656 304.152344 -20.320312 304.152344 -20.917969 304.453125 C -25.25 305.648438 -29.582031 306.84375 -33.765625 308.1875 C -32.71875 311.03125 -11.503906 313.570312 -1.796875 311.179688 Z M 131.757812 48.964844 L 132.207031 47.019531 C 126.53125 44.628906 121.003906 42.085938 115.175781 39.84375 C 113.980469 39.394531 112.339844 39.84375 110.097656 39.84375 C 111.589844 41.339844 112.636719 42.085938 112.488281 42.535156 C 110.992188 47.617188 114.730469 47.46875 117.714844 47.769531 C 120.40625 48.214844 123.09375 48.367188 125.632812 48.515625 C 127.875 48.664062 129.816406 48.8125 131.757812 48.964844 Z M -142.96875 93.363281 L -142.070312 94.558594 L -138.039062 92.316406 C -134.75 90.375 -131.613281 88.132812 -128.328125 86.335938 C -123.695312 83.945312 -122.5 81.105469 -124.445312 75.574219 Z M -78.730469 294.882812 L -77.683594 294.285156 C -77.835938 293.390625 -77.835938 291.894531 -78.132812 291.894531 C -80.820312 291.296875 -81.121094 289.054688 -81.417969 287.261719 L -91.277344 286.363281 L -91.875 287.410156 Z M -155.964844 122.066406 L -157.011719 121.617188 L -160.148438 128.046875 C -155.964844 129.09375 -155.515625 128.347656 -155.964844 122.066406 Z M -117.125 74.828125 L -117.871094 74.378906 C -118.617188 75.574219 -119.363281 76.769531 -119.8125 78.117188 C -119.960938 78.414062 -118.320312 79.160156 -117.125 80.058594 Z M -180.015625 218.042969 C -180.761719 218.34375 -181.808594 218.34375 -182.109375 218.941406 C -182.554688 219.988281 -183.003906 221.035156 -183.152344 222.078125 L -180.761719 228.210938 L -177.625 227.609375 L -181.210938 224.324219 L -178.671875 222.378906 C -179.417969 221.632812 -180.015625 220.734375 -180.613281 219.835938 C -180.761719 219.390625 -180.316406 218.640625 -180.015625 218.042969 Z M -180.015625 218.042969"/></g></svg>