<svg xmlns="http://www.w3.org/2000/svg" width="375" viewBox="0 0 375 375" height="375" version="1.0"><defs><clipPath id="a"><path d="M 8 27.027344 L 366 27.027344 L 366 347 L 8 347 Z M 8 27.027344"/></clipPath></defs><g clip-path="url(#a)"><path fill="#38D39F" d="M 364.5625 266.308594 C 361.378906 282.527344 352.742188 297.949219 342.675781 310.871094 C 338.160156 316.671875 333.113281 322.199219 327.207031 326.613281 C 321.742188 330.695312 315.53125 333.738281 309.207031 336.21875 C 293.90625 342.21875 277.335938 345.023438 260.984375 346.003906 C 244.050781 347.019531 226.78125 346.03125 210.246094 342.085938 C 196.523438 338.808594 182.421875 333.328125 172.460938 322.957031 C 164.515625 314.683594 158.253906 304.90625 149.777344 297.125 C 141.351562 289.394531 131.207031 283.355469 120.894531 278.511719 C 112.085938 274.371094 102.902344 271.121094 93.96875 267.28125 C 84.640625 263.269531 75.75 258.429688 67.730469 252.167969 C 59.210938 245.519531 51.746094 237.816406 47.1875 227.902344 C 43.035156 218.878906 41.183594 209 40.511719 199.140625 C 39.796875 188.644531 40.648438 178.261719 41.160156 167.789062 C 41.453125 161.792969 40.863281 155.964844 37.226562 150.988281 C 34.179688 146.816406 29.945312 143.652344 25.996094 140.390625 C 19.175781 134.761719 13.589844 128.296875 10.648438 119.832031 C 8 112.222656 7.71875 103.972656 9.125 96.078125 C 12.191406 78.867188 22.957031 63.257812 36.855469 52.929688 C 44.222656 47.453125 52.75 43.296875 61.210938 39.808594 C 69.363281 36.445312 77.851562 33.960938 86.527344 32.375 C 106.84375 28.660156 127.742188 29.480469 148.25 30.746094 C 158.589844 31.914062 168.976562 31.992188 179.324219 30.917969 C 187.054688 30.117188 194.699219 28.59375 202.441406 27.914062 C 209.597656 27.289062 216.546875 27.882812 223.34375 30.296875 C 233.078125 33.75 241.410156 39.589844 249.917969 45.292969 C 254.144531 48.125 258.464844 50.828125 263.046875 53.050781 C 267.839844 55.382812 272.902344 57.039062 277.972656 58.652344 C 287.28125 61.613281 296.710938 64.226562 305.898438 67.570312 C 314.414062 70.671875 322.875 74.394531 330.097656 79.953125 C 337.179688 85.40625 342.742188 92.75 345.101562 101.460938 C 347.832031 111.535156 345.851562 122.097656 342.054688 131.617188 C 337.75 142.40625 331.375 152.242188 324.816406 161.769531 C 319.242188 169.871094 312.304688 178.300781 311.472656 188.511719 C 310.765625 197.21875 315.464844 204.730469 321.0625 210.96875 C 324.8125 215.148438 328.96875 219.296875 333.464844 222.667969 C 337.792969 225.914062 342.6875 228.289062 347.421875 230.863281 C 354.300781 234.605469 361.148438 238.785156 363.953125 246.460938 C 366.257812 252.769531 365.835938 259.828125 364.5625 266.308594 Z M 364.5625 266.308594"/></g></svg>